<?xml version="1.0" encoding="utf-8"?>
<!-- Generator: Adobe Illustrator 22.0.0, SVG Export Plug-In . SVG Version: 6.00 Build 0)  -->
<svg version="1.1" id="Layer_1" xmlns="http://www.w3.org/2000/svg" xmlns:xlink="http://www.w3.org/1999/xlink" x="0px" y="0px"
	 viewBox="0 0 512 512" style="enable-background:new 0 0 512 512;" xml:space="preserve">
<style type="text/css">
	.st0{fill:#7843CE;}
</style>
<g>
	<path class="st0" d="M503.5,332.8H8.5c-4.7,0-8.5-3.8-8.5-8.5V42.7C0,23.9,15.3,8.5,34.1,8.5h443.7c18.8,0,34.1,15.3,34.1,34.1
		v281.6C512,329,508.2,332.8,503.5,332.8z M17.1,315.7h477.9V42.7c0-9.4-7.7-17.1-17.1-17.1H34.1c-9.4,0-17.1,7.7-17.1,17.1V315.7z"
		/>
	<path class="st0" d="M477.9,401.1H34.1C15.3,401.1,0,385.7,0,366.9v-42.7c0-4.7,3.8-8.5,8.5-8.5h494.9c4.7,0,8.5,3.8,8.5,8.5v42.7
		C512,385.7,496.7,401.1,477.9,401.1z M17.1,332.8v34.1c0,9.4,7.7,17.1,17.1,17.1h443.7c9.4,0,17.1-7.7,17.1-17.1v-34.1H17.1z"/>
	<path class="st0" d="M281.6,366.9h-51.2c-4.7,0-8.5-3.8-8.5-8.5c0-4.7,3.8-8.5,8.5-8.5h51.2c4.7,0,8.5,3.8,8.5,8.5
		C290.1,363.1,286.3,366.9,281.6,366.9z"/>
	<path class="st0" d="M469.3,332.8H42.7c-4.7,0-8.5-3.8-8.5-8.5V51.2c0-4.7,3.8-8.5,8.5-8.5h426.7c4.7,0,8.5,3.8,8.5,8.5v273.1
		C477.9,329,474,332.8,469.3,332.8z M51.2,315.7h409.6v-256H51.2V315.7z"/>
	<path class="st0" d="M366.9,503.5H145.1c-14.1,0-25.6-11.5-25.6-25.6c0-14.1,11.5-25.6,25.6-25.6h221.9c14.1,0,25.6,11.5,25.6,25.6
		C392.5,492,381,503.5,366.9,503.5z M145.1,469.3c-4.7,0-8.5,3.8-8.5,8.5c0,4.7,3.8,8.5,8.5,8.5h221.9c4.7,0,8.5-3.8,8.5-8.5
		c0-4.7-3.8-8.5-8.5-8.5H145.1z"/>
	<path class="st0" d="M349.9,469.3H162.1c-4.7,0-8.5-3.8-8.5-8.5s3.8-8.5,8.5-8.5c28.3,0,42.7-20.1,42.7-59.7c0-4.7,3.8-8.5,8.5-8.5
		h85.3c4.7,0,8.5,3.8,8.5,8.5c0,39.6,14.4,59.7,42.7,59.7c4.7,0,8.5,3.8,8.5,8.5S354.6,469.3,349.9,469.3z M203.7,452.3h104.6
		c-10.5-11.6-16.7-29-17.9-51.2h-68.7C220.4,423.3,214.2,440.6,203.7,452.3z"/>
	<path class="st0" d="M377.6,298.7c-2.3,0-4.4-0.9-6-2.5L351,275.6l-12.1,12.1c-2.1,2.1-5.2,3-8.1,2.2c-2.9-0.7-5.2-2.9-6.1-5.8
		l-25.6-85.3c-0.9-3-0.1-6.3,2.1-8.5c2.2-2.2,5.5-3,8.5-2.1l85.3,25.6c2.9,0.9,5.1,3.2,5.8,6.1s-0.1,6-2.2,8.1l-11.5,11.5l20.6,20.6
		c3.3,3.3,3.3,8.7,0,12.1l-24.1,24.1C382,297.8,379.9,298.7,377.6,298.7z M351,256c2.9,0,5.7,1.1,7.9,3.3l18.8,18.8l12.1-12.1
		l-19.8-19.8c-1.8-1.8-2.8-4.2-2.8-6.8c0-2.6,1-5,2.8-6.8l6.6-6.6L320,209l16.9,56.5l6.2-6.2C345.3,257.1,348.1,256,351,256z"/>
	<path class="st0" d="M358.4,136.5H119.5c-4.7,0-8.5-3.8-8.5-8.5V85.3c0-4.7,3.8-8.5,8.5-8.5h238.9c4.7,0,8.5,3.8,8.5,8.5V128
		C366.9,132.7,363.1,136.5,358.4,136.5z M128,119.5h221.9V93.9H128V119.5z"/>
	<path class="st0" d="M221.9,221.9h-68.3c-4.7,0-8.5-3.8-8.5-8.5v-34.1c0-4.7,3.8-8.5,8.5-8.5h68.3c4.7,0,8.5,3.8,8.5,8.5v34.1
		C230.4,218,226.6,221.9,221.9,221.9z M162.1,204.8h51.2v-17.1h-51.2V204.8z"/>
	<path class="st0" d="M322.6,256H119.5c-4.7,0-8.5-3.8-8.5-8.5V85.3c0-4.7,3.8-8.5,8.5-8.5h238.9c4.7,0,8.5,3.8,8.5,8.5v126.3
		c0,2.7-1.3,5.2-3.4,6.8c-2.2,1.6-5,2.1-7.5,1.3L320,209l10.8,36c0.8,2.6,0.3,5.4-1.3,7.6C327.9,254.7,325.3,256,322.6,256z
		 M128,238.9h183.1l-12.1-40.2c-0.9-3-0.1-6.3,2.1-8.5c2.2-2.2,5.5-3,8.5-2.1l40.2,12V93.9H128V238.9z"/>
</g>
</svg>
