<?xml version="1.0" encoding="utf-8"?>
<!-- Generator: Adobe Illustrator 22.1.0, SVG Export Plug-In . SVG Version: 6.00 Build 0)  -->
<svg version="1.1" id="Layer_1" xmlns="http://www.w3.org/2000/svg" xmlns:xlink="http://www.w3.org/1999/xlink" x="0px" y="0px"
	 viewBox="0 0 512 512" style="enable-background:new 0 0 512 512;" xml:space="preserve">
<style type="text/css">
	.st0{fill:#7843CE;}
</style>
<g>
	<path class="st0" d="M485,272.5v-99.1h-31.1c-4.6-18-11.7-35.1-21.2-51.1l22-22l-70.1-70.1l-22,22c-16-9.4-33.1-16.6-51.1-21.2V0
		h-99.1v31.1c-18,4.6-35.1,11.7-51.1,21.2l-22-22l-70.1,70.1l22,22c-9.4,16-16.6,33.1-21.2,51.1H39v99.1h31.1
		c4.6,18,11.7,35.1,21.2,51.1l-22,22l70.1,70.1l22-22c0.7,0.4,1.4,0.8,2.1,1.2c-0.4,1.8-0.6,3.7-0.6,5.7c0,10.4,5.5,19.4,13.7,24.5
		c-3.4,4.7-5.5,10.5-5.5,16.8c0,10.4,5.5,19.4,13.7,24.5c-3.4,4.8-5.5,10.5-5.5,16.8c0,15.9,13,28.9,28.9,28.9h107.4
		c15.9,0,28.9-13,28.9-28.9c0-6.3-2.1-12-5.5-16.8c8.2-5.1,13.7-14.1,13.7-24.5c0-6.3-2.1-12-5.5-16.8c8.2-5.1,13.7-14.1,13.7-24.5
		c0-1.9-0.2-3.8-0.6-5.7c0.7-0.4,1.4-0.8,2.1-1.2l22,22l70.1-70.1l-22-22c9.5-16,16.6-33.1,21.2-51.1H485z M315.7,495.5H208.3
		c-6.8,0-12.4-5.6-12.4-12.4c0-6.8,5.6-12.4,12.4-12.4h107.4c6.8,0,12.4,5.6,12.4,12.4C328.1,489.9,322.5,495.5,315.7,495.5
		L315.7,495.5z M323.9,454.2H200.1c-6.8,0-12.4-5.6-12.4-12.4c0-6.8,5.6-12.4,12.4-12.4h123.9c6.8,0,12.4,5.6,12.4,12.4
		C336.3,448.6,330.8,454.2,323.9,454.2L323.9,454.2z M332.2,412.9H191.8c-6.8,0-12.4-5.6-12.4-12.4c0-6.8,5.6-12.4,12.4-12.4h140.4
		c6.8,0,12.4,5.6,12.4,12.4C344.6,407.3,339,412.9,332.2,412.9L332.2,412.9z M328.5,371.6H195.5c-2-20.5-11.3-39.8-26.6-55.1
		c-29.5-29.2-43.3-69.8-37.9-111.3c7.7-59.2,56.4-107,115.9-113.6c38.2-4.3,74.8,7.4,103.2,32.8c28,25,44,60.9,44,98.5
		c0,35.7-14.1,69.2-39.7,94.2C339.7,331.7,330.4,351.1,328.5,371.6L328.5,371.6z M439.3,262.5c-4.6,20.6-12.6,40.1-24,57.9l-3.6,5.6
		l19.6,19.6l-46.7,46.7L365,372.7l-5.6,3.6c-2.1,1.4-4.3,2.7-6.6,4c-2.3-2.3-5-4.2-7.9-5.6c1.3-17.1,8.8-33.6,21.2-45.7
		c28.8-28.2,44.6-65.8,44.6-106c0-42.2-18.1-82.6-49.5-110.8c-31.9-28.6-73.1-41.7-116.1-37c-66.9,7.4-121.8,61.2-130.4,127.9
		c-6.1,46.6,9.5,92.3,42.6,125.2c13,12.9,20.6,29.2,21.9,46.4c-2.9,1.4-5.7,3.3-7.9,5.6c-2.3-1.3-4.5-2.7-6.6-4l-5.6-3.6l-19.6,19.6
		l-46.7-46.7l19.6-19.6l-3.6-5.6c-11.4-17.8-19.5-37.3-24-57.9l-1.4-6.5H55.5v-66.1h27.7l1.4-6.5c4.6-20.6,12.6-40.1,24-57.9
		l3.6-5.6l-19.6-19.6l46.7-46.7L159,73.2l5.6-3.6c17.9-11.4,37.3-19.5,57.9-24l6.5-1.4V16.5H295v27.7l6.5,1.4
		c20.6,4.6,40.1,12.6,57.9,24l5.6,3.6l19.6-19.6l46.7,46.7l-19.6,19.6l3.6,5.6c11.4,17.8,19.4,37.3,24,57.9l1.4,6.5h27.7V256h-27.7
		L439.3,262.5z M439.3,262.5"/>
	<path class="st0" d="M270.3,140.4h-16.5c-31.9,0-57.8,25.9-57.8,57.8v49.5c0,31.9,25.9,57.8,57.8,57.8h16.5
		c31.9,0,57.8-25.9,57.8-57.8v-16.5h-49.5v16.5c0,4.6-3.7,8.3-8.3,8.3h-16.5c-4.6,0-8.3-3.7-8.3-8.3v-49.5c0-4.6,3.7-8.3,8.3-8.3
		h16.5c4.6,0,8.3,3.7,8.3,8.3v16.5h49.5v-16.5C328.1,166.3,302.1,140.4,270.3,140.4L270.3,140.4z M295,198.2
		c0-13.7-11.1-24.8-24.8-24.8h-16.5c-13.7,0-24.8,11.1-24.8,24.8v49.5c0,13.7,11.1,24.8,24.8,24.8h16.5c13.7,0,24.8-11.1,24.8-24.8
		h16.5c0,22.8-18.5,41.3-41.3,41.3h-16.5c-22.8,0-41.3-18.5-41.3-41.3v-49.5c0-22.8,18.5-41.3,41.3-41.3h16.5
		c22.8,0,41.3,18.5,41.3,41.3H295z M295,198.2"/>
</g>
</svg>
