<?xml version="1.0" encoding="utf-8"?>
<!-- Generator: Adobe Illustrator 22.1.0, SVG Export Plug-In . SVG Version: 6.00 Build 0)  -->
<svg version="1.1" id="Layer_1" xmlns="http://www.w3.org/2000/svg" xmlns:xlink="http://www.w3.org/1999/xlink" x="0px" y="0px"
	 viewBox="-49 141 512 512" style="enable-background:new -49 141 512 512;" xml:space="preserve">
<style type="text/css">
	.st0{fill:#7843CE;}
</style>
<path class="st0" d="M255,382c0-66.3-53.7-120-119.9-120.1c-66.3,0-120,53.7-120.1,119.9c0,47.7,28.2,91,72,110.1V550
	c0,13.3,10.7,24,24,24v8c0,13.3,10.7,24,24,24s24-10.7,24-24l0,0v-8c13.3,0,24-10.7,24-24v-58.1C226.7,472.8,254.9,429.7,255,382z
	 M31,382c-0.1-57.4,46.5-104,103.9-104.1c57.4-0.1,104,46.5,104.1,103.9c0,46.7-31,87.6-75.9,100.2l11.8-82.9l-15.8-2.3l-12.6,88.5
	c-7.6,0.9-15.3,0.9-22.9,0l-12.6-88.5l-15.8,2.3l11.8,82.9C62.1,469.4,31.1,428.6,31,382z M103,526h64v8h-64V526z M143,582
	c0,4.4-3.6,8-8,8s-8-3.6-8-8v-8h16V582z M159,558h-48c-4.4,0-8-3.6-8-8h64C167,554.4,163.4,558,159,558z M167,510h-64v-12.5
	c20.9,6,43.1,6,64,0V510z"/>
<path class="st0" d="M340.7,192.3c-1.5-1.5-3.5-2.3-5.7-2.3v-24c0-4.4-3.6-8-8-8H55v0.1c-2.1,0-4.2,0.8-5.7,2.3l-80,80
	c-1.5,1.5-2.3,3.5-2.3,5.7H-33v384c0,4.4,3.6,8,8,8h352c4.4,0,8-3.6,8-8V369.3l18.3,18.3c3.1,3.1,8.2,3.1,11.3,0l80-80
	c3.1-3.1,3.1-8.2,0-11.3L340.7,192.3z M319,190h-16v-16h16V190z M47,185.3V238H-5.7L47,185.3z M-17,622V254h72c4.4,0,8-3.6,8-8v-72
	h224v16h-32c-4.4,0-8,3.6-8,8v80c0,2.1,0.8,4.2,2.3,5.7l37.7,37.7V622H-17z M319,622h-16V337.3l16,16V622z M359,370.7l-96-96V206
	h68.7l96,96L359,370.7z"/>
<path class="st0" d="M131.4,389.2c2.3,1.1,4.9,1.1,7.2,0l28.4-14.3l28.4,14.3l7.2-14.3l-32-16c-2.3-1.1-4.9-1.1-7.2,0L135,373.1
	l-28.4-14.2c-2.3-1.1-4.9-1.1-7.2,0l-32,16l7.2,14.3l28.4-14.2L131.4,389.2z"/>
<path class="st0" d="M303,222c-13.3,0-24,10.7-24,24c0,13.3,10.7,24,24,24s24-10.7,24-24C327,232.7,316.3,222,303,222z M303,254
	c-4.4,0-8-3.6-8-8s3.6-8,8-8s8,3.6,8,8S307.4,254,303,254z"/>
<rect x="167" y="238" class="st0" width="64" height="16"/>
<rect x="207" y="206" class="st0" width="24" height="16"/>
<rect x="127" y="206" class="st0" width="64" height="16"/>
<rect x="342.7" y="306" transform="matrix(0.7071 -0.7071 0.7071 0.7071 -113.3711 354.3026)" class="st0" width="56.6" height="16"/>
<path class="st0" d="M445.2,433l-32-40c-3-3.5-8.2-3.8-11.7-0.8c-0.3,0.2-0.6,0.5-0.8,0.8l-32,40l0.1,0.1c-1.2,1.4-1.8,3.1-1.8,4.9
	v184c0,8.8,7.2,16,16,16h48c8.8,0,16-7.2,16-16V438C447,436.2,446.3,434.5,445.2,433L445.2,433z M407,410.8l15.4,19.2h-30.7
	L407,410.8z M383,622V446h48v176H383z"/>
<rect x="207" y="502" class="st0" width="64" height="16"/>
<rect x="207" y="534" class="st0" width="64" height="16"/>
<rect x="207" y="566" class="st0" width="64" height="16"/>
</svg>
