<?xml version="1.0" encoding="utf-8"?>
<!-- Generator: Adobe Illustrator 22.0.0, SVG Export Plug-In . SVG Version: 6.00 Build 0)  -->
<svg version="1.1" id="Layer_1" xmlns="http://www.w3.org/2000/svg" xmlns:xlink="http://www.w3.org/1999/xlink" x="0px" y="0px"
	 viewBox="0 0 512 512" style="enable-background:new 0 0 512 512;" xml:space="preserve">
<style type="text/css">
	.st0{fill:#7843CE;}
</style>
<g>
	<path class="st0" d="M504,4.3H256H8c-4.4,0-8,3.6-8,8v102.6v384.8c0,4.4,3.6,8,8,8h248h248c4.4,0,8-3.6,8-8V114.9V12.3
		C512,7.9,508.4,4.3,504,4.3z M256,20.3h240v86.6H256H16V20.3H256z M256,491.7H16V122.9h240h240v368.8H256z"/>
	<path class="st0" d="M333,54.5H427c4.4,0,8-3.6,8-8s-3.6-8-8-8H333c-4.4,0-8,3.6-8,8S328.5,54.5,333,54.5z"/>
	<path class="st0" d="M452.7,54.5h17.1c4.4,0,8-3.6,8-8s-3.6-8-8-8h-17.1c-4.4,0-8,3.6-8,8S448.2,54.5,452.7,54.5z"/>
	<path class="st0" d="M253.3,95.3C253.3,95.3,253.3,95.3,253.3,95.3c3.6,1.3,7.4,1.9,11.2,1.9c18.6,0,33.7-15.1,33.7-33.7
		s-15.1-33.7-33.7-33.7c-3.8,0-7.6,0.6-11.2,1.9c0,0,0,0,0,0c-13.4,4.8-22.4,17.5-22.4,31.7S239.9,90.6,253.3,95.3z M258.7,47
		C258.7,47,258.7,47,258.7,47c1.9-0.7,3.9-1,5.9-1c9.7,0,17.6,7.9,17.6,17.6s-7.9,17.6-17.6,17.6c-2,0-4-0.3-5.9-1c0,0,0,0,0,0
		c-7-2.5-11.8-9.2-11.8-16.6S251.6,49.5,258.7,47z"/>
	<path class="st0" d="M170.5,97.3c18.6,0,33.7-15.1,33.7-33.7s-15.1-33.7-33.7-33.7S136.8,45,136.8,63.6S151.9,97.3,170.5,97.3z
		 M170.5,46c9.7,0,17.6,7.9,17.6,17.6s-7.9,17.6-17.6,17.6c-9.7,0-17.6-7.9-17.6-17.6S160.8,46,170.5,46z"/>
	<path class="st0" d="M76.4,97.3c18.6,0,33.7-15.1,33.7-33.7S95,29.9,76.4,29.9S42.8,45,42.8,63.6S57.9,97.3,76.4,97.3z M76.4,46
		c9.7,0,17.6,7.9,17.6,17.6s-7.9,17.6-17.6,17.6s-17.6-7.9-17.6-17.6S66.7,46,76.4,46z"/>
	<path class="st0" d="M395.8,129.9c-3.1-3.1-8.2-3.1-11.3,0l-54,54H256H72.2c-4.4,0-8,3.6-8,8s3.6,8,8,8H256h58.5L250.3,264
		l-56.7,56.7H72.2c-4.4,0-8,3.6-8,8c0,4.4,3.6,8,8,8h105.5L160.4,354c0,0,0,0,0,0l0,0c0,0,0,0.1-0.1,0.1c-0.2,0.2-0.3,0.3-0.5,0.5
		c-0.1,0.1-0.1,0.1-0.2,0.2c-0.1,0.1-0.2,0.3-0.3,0.4c-0.1,0.1-0.1,0.2-0.2,0.3c-0.1,0.1-0.2,0.2-0.2,0.4c-0.1,0.1-0.1,0.3-0.2,0.4
		c0,0.1-0.1,0.2-0.1,0.3c-0.1,0.2-0.1,0.3-0.2,0.5c0,0.1-0.1,0.2-0.1,0.2c-0.1,0.2-0.1,0.4-0.2,0.6c0,0,0,0.1,0,0.1l0,0c0,0,0,0,0,0
		l-19.9,99.3H72.2c-4.4,0-8,3.6-8,8s3.6,8,8,8h72.6c0,0,0,0,0,0c0,0,0,0,0,0c0,0,0,0,0,0c0,0,0,0,0,0h6.3c2.1,0,4.1-0.8,5.5-2.2
		l35-7c0,0,0,0,0,0l0,0l60.4-12.1c0,0,0,0,0,0l0,0c0,0,0.1,0,0.1,0c0.2,0,0.4-0.1,0.6-0.2c0.1,0,0.2-0.1,0.3-0.1
		c0.2-0.1,0.3-0.1,0.5-0.2c0.1,0,0.2-0.1,0.3-0.2c0.1-0.1,0.3-0.1,0.4-0.2c0.1-0.1,0.3-0.1,0.4-0.2c0.1-0.1,0.2-0.1,0.3-0.2
		c0.1-0.1,0.3-0.2,0.4-0.3c0.1-0.1,0.1-0.1,0.2-0.2c0.2-0.1,0.3-0.3,0.5-0.5c0,0,0.1,0,0.1-0.1l0,0c0,0,0,0,0,0l5.3-5.3L372,334.4
		l48-48l60.5-60.5c3.1-3.1,3.1-8.2,0-11.3L395.8,129.9z M360.6,323l-110,110l-15.9-15.9l26.9-26.9l55.9-55.9l69.6-69.6l15.9,15.9
		L360.6,323z M155.1,455.3l3.8-18.9l15.1,15.1L155.1,455.3z M192.8,447.7l-30.2-30.2l8.3-41.6l16.6,16.6l30.2,30.2l16.6,16.6
		L192.8,447.7z M306.2,323l-55.9,55.9l-26.9,26.9l-18.9-18.9l152.3-152.3l18.9,18.9L306.2,323z M193.2,375.6l-15.9-15.9l25.3-25.3
		c0,0,0,0,0,0l59-59l68-68l15.9,15.9L193.2,375.6z M414.3,269.3l-21.5-21.5l-30.2-30.2L341,196l49.1-49.1l73.3,73.3L414.3,269.3z"/>
	<path class="st0" d="M382.9,169.1l-19.2,19.2c-3.1,3.1-3.1,8.2,0,11.3c1.6,1.6,3.6,2.3,5.7,2.3c2.1,0,4.1-0.8,5.7-2.3l19.2-19.2
		c3.1-3.1,3.1-8.2,0-11.3C391.1,166,386,166,382.9,169.1z"/>
</g>
</svg>
