<?xml version="1.0" encoding="utf-8"?>
<!-- Generator: Adobe Illustrator 22.1.0, SVG Export Plug-In . SVG Version: 6.00 Build 0)  -->
<svg version="1.1" id="Layer_1" xmlns="http://www.w3.org/2000/svg" xmlns:xlink="http://www.w3.org/1999/xlink" x="0px" y="0px"
	 viewBox="0 0 512 512" style="enable-background:new 0 0 512 512;" xml:space="preserve">
<style type="text/css">
	.st0{fill:#7843CE;}
</style>
<g>
	<path class="st0" d="M465,90.1H233v0.3c-8.6-7.2-18.1-13.5-28.5-18.6l-7,14.4c41.6,20.3,67.5,61.7,67.5,107.9
		c0,63.5-49.6,115.4-112,119.6V154.1h-16v32H25.3c2.8-43,28-80.8,67.2-99.9l-7-14.4C38.3,94.7,9,141.6,9,194.1
		c0,33.3,12.1,63.8,32,87.5v136.5c0,22.1,17.9,40,40,40h96v32h-32v16h256v-16h-32v-32h96c22.1,0,40-17.9,40-40v-288
		C505,108,487.1,90.1,465,90.1L465,90.1z M137,313.7c-59.8-4-107.6-51.8-111.6-111.6H137V313.7z M353,490.1H193v-32h160V490.1z
		 M489,418.1c0,13.2-10.8,24-24,24H81c-13.2,0-24-10.8-24-24v-8h432V418.1z M57,394.1v-96.5c23.7,20.2,54.4,32.5,88,32.5
		c75,0,136-61,136-136c0-33.1-11.7-63.9-32.1-88H465c13.2,0,24,10.8,24,24v264H57z M57,394.1"/>
	<rect x="169" y="186.1" class="st0" width="16" height="16"/>
	<rect x="201" y="186.1" class="st0" width="16" height="16"/>
	<rect x="233" y="186.1" class="st0" width="16" height="16"/>
	<path class="st0" d="M449,212.3c-13.2,0-24,10.8-24,24c0,6.5,2.6,12.3,6.8,16.6l-19.8,39.7c-1-0.1-1.9-0.3-2.9-0.3
		c-5.4,0-10.3,1.8-14.3,4.8l-34.5-23c0.5-1.9,0.8-3.8,0.8-5.8c0-13.2-10.8-24-24-24c-13.2,0-24,10.8-24,24c0,5.1,1.6,9.8,4.4,13.7
		l-31,48.7c-1.7-0.4-3.5-0.7-5.4-0.7c-13.2,0-24,10.8-24,24c0,13.2,10.8,24,24,24c13.2,0,24-10.8,24-24c0-5.6-2-10.6-5.2-14.7
		l30.6-48.1c2.1,0.6,4.3,1,6.6,1c5.4,0,10.3-1.8,14.3-4.9l34.5,23c-0.5,1.9-0.8,3.8-0.8,5.9c0,13.2,10.8,24,24,24
		c13.2,0,24-10.8,24-24c0-6.5-2.6-12.3-6.8-16.6l19.8-39.7c1,0.1,1.9,0.3,2.9,0.3c13.2,0,24-10.8,24-24
		C473,223.1,462.2,212.3,449,212.3L449,212.3z M281,362.1c-4.4,0-8-3.6-8-8s3.6-8,8-8c4.4,0,8,3.6,8,8S285.4,362.1,281,362.1
		L281,362.1z M337,276.3c-4.4,0-8-3.6-8-8c0-4.4,3.6-8,8-8c4.4,0,8,3.6,8,8C345,272.7,341.4,276.3,337,276.3L337,276.3z M409,324.3
		c-4.4,0-8-3.6-8-8c0-4.4,3.6-8,8-8c4.4,0,8,3.6,8,8C417,320.7,413.4,324.3,409,324.3L409,324.3z M449,244.3c-4.4,0-8-3.6-8-8
		c0-4.4,3.6-8,8-8s8,3.6,8,8C457,240.7,453.4,244.3,449,244.3L449,244.3z M449,244.3"/>
	<rect x="297" y="138.1" class="st0" width="176" height="16"/>
	<rect x="297" y="170.1" class="st0" width="176" height="16"/>
	<rect x="169" y="346.1" class="st0" width="72" height="16"/>
	<rect x="73" y="346.1" class="st0" width="80" height="16"/>
	<path class="st0" d="M133,122.1h4v16h16v-16h4c15.4,0,28-12.6,28-28s-12.6-28-28-28h-24c-6.6,0-12-5.4-12-12c0-6.6,5.4-12,12-12h24
		c6.6,0,12,5.4,12,12v4h16v-4c0-15.4-12.6-28-28-28h-4v-16h-16v16h-4c-15.4,0-28,12.6-28,28c0,15.4,12.6,28,28,28h24
		c6.6,0,12,5.4,12,12c0,6.6-5.4,12-12,12h-24c-6.6,0-12-5.4-12-12v-4h-16v4C105,109.5,117.6,122.1,133,122.1L133,122.1z M133,122.1"
		/>
</g>
</svg>
