<?xml version="1.0" encoding="utf-8"?>
<!-- Generator: Adobe Illustrator 22.0.0, SVG Export Plug-In . SVG Version: 6.00 Build 0)  -->
<svg version="1.1" id="Layer_1" xmlns="http://www.w3.org/2000/svg" xmlns:xlink="http://www.w3.org/1999/xlink" x="0px" y="0px"
	 viewBox="0 0 512 512" style="enable-background:new 0 0 512 512;" xml:space="preserve">
<style type="text/css">
	.st0{clip-path:url(#SVGID_2_);fill:#7843CE;}
	.st1{fill:#7843CE;}
</style>
<g>
	<g>
		<defs>
			<rect id="SVGID_1_" x="60" y="0.4" width="410.1" height="511.6"/>
		</defs>
		<clipPath id="SVGID_2_">
			<use xlink:href="#SVGID_1_"  style="overflow:visible;"/>
		</clipPath>
		<path class="st0" d="M392.4,198.7l-11.5,12.6l52.3,47.9c12.3,11.3,19.3,27.3,19.3,44V512h17.1V303.2c0-21.5-9-42-24.9-56.6
			L392.4,198.7z M392.4,198.7"/>
		<path class="st0" d="M324.6,0.3H102.9C79.3,0.4,60.3,19.4,60.2,43v426.4c0,23.5,19.1,42.6,42.6,42.6h213.2v-15.3
			c0-38.4,11.3-76,32.7-107.9c2.3-3.4,1.8-7.9-1.1-10.8L288,318.4c-5.5-5.5-8.4-13.1-8.1-20.9c0.4-7.8,4.1-15.1,10.1-20
			c11.6-8.9,28.1-7.6,38.2,2.9l84.2,84.2l12.1-12.1l-57.2-57.2V43C367.2,19.4,348.1,0.4,324.6,0.3L324.6,0.3z M350.2,278.2l-9.9-9.9
			c-16.4-16.7-42.7-18.5-61.1-4c-9.7,8-15.7,19.8-16.3,32.4c-0.6,12.6,4.1,24.9,13,33.8l54.8,54.8c-20.4,33-31.4,70.9-31.7,109.7
			H102.9c-14.1,0-25.6-11.5-25.6-25.6v-25.6h213.2v-17.1H77.3V68.6h272.9V278.2z M350.2,51.5H77.3V43c0-14.1,11.5-25.6,25.6-25.6
			h221.7c14.1,0,25.6,11.5,25.6,25.6V51.5z M350.2,51.5"/>
	</g>
	<path class="st1" d="M111.4,153.8h34.1c9.4,0,17.1-7.6,17.1-17.1v-34.1c0-9.4-7.6-17.1-17.1-17.1h-34.1c-9.4,0-17.1,7.6-17.1,17.1
		v34.1C94.4,146.2,102,153.8,111.4,153.8L111.4,153.8z M111.4,102.7h34.1v34.1h-34.1V102.7z M111.4,102.7"/>
	<path class="st1" d="M196.7,153.8h34.1c9.4,0,17.1-7.6,17.1-17.1v-34.1c0-9.4-7.6-17.1-17.1-17.1h-34.1c-9.4,0-17.1,7.6-17.1,17.1
		v34.1C179.6,146.2,187.3,153.8,196.7,153.8L196.7,153.8z M196.7,102.7h34.1v34.1h-34.1V102.7z M196.7,102.7"/>
	<path class="st1" d="M282,153.8h34.1c9.4,0,17.1-7.6,17.1-17.1v-34.1c0-9.4-7.6-17.1-17.1-17.1H282c-9.4,0-17.1,7.6-17.1,17.1v34.1
		C264.9,146.2,272.5,153.8,282,153.8L282,153.8z M282,102.7h34.1v34.1H282V102.7z M282,102.7"/>
	<path class="st1" d="M111.4,239.1h34.1c9.4,0,17.1-7.6,17.1-17.1V188c0-9.4-7.6-17.1-17.1-17.1h-34.1c-9.4,0-17.1,7.6-17.1,17.1
		v34.1C94.4,231.5,102,239.1,111.4,239.1L111.4,239.1z M111.4,188h34.1v34.1h-34.1V188z M111.4,188"/>
	<path class="st1" d="M111.4,324.4h34.1c9.4,0,17.1-7.6,17.1-17.1v-34.1c0-9.4-7.6-17.1-17.1-17.1h-34.1c-9.4,0-17.1,7.6-17.1,17.1
		v34.1C94.4,316.8,102,324.4,111.4,324.4L111.4,324.4z M111.4,273.2h34.1v34.1h-34.1V273.2z M111.4,273.2"/>
	<path class="st1" d="M196.7,239.1h34.1c9.4,0,17.1-7.6,17.1-17.1V188c0-9.4-7.6-17.1-17.1-17.1h-34.1c-9.4,0-17.1,7.6-17.1,17.1
		v34.1C179.6,231.5,187.3,239.1,196.7,239.1L196.7,239.1z M196.7,188h34.1v34.1h-34.1V188z M196.7,188"/>
	<path class="st1" d="M282,239.1h34.1c9.4,0,17.1-7.6,17.1-17.1V188c0-9.4-7.6-17.1-17.1-17.1H282c-9.4,0-17.1,7.6-17.1,17.1v34.1
		C264.9,231.5,272.5,239.1,282,239.1L282,239.1z M282,188h34.1v34.1H282V188z M282,188"/>
	<path class="st1" d="M196.7,324.4h34.1c9.4,0,17.1-7.6,17.1-17.1v-34.1c0-9.4-7.6-17.1-17.1-17.1h-34.1c-9.4,0-17.1,7.6-17.1,17.1
		v34.1C179.6,316.8,187.3,324.4,196.7,324.4L196.7,324.4z M196.7,273.2h34.1v34.1h-34.1V273.2z M196.7,273.2"/>
	<path class="st1" d="M111.4,409.7h34.1c9.4,0,17.1-7.6,17.1-17.1v-34.1c0-9.4-7.6-17.1-17.1-17.1h-34.1c-9.4,0-17.1,7.6-17.1,17.1
		v34.1C94.4,402,102,409.7,111.4,409.7L111.4,409.7z M111.4,358.5h34.1v34.1h-34.1V358.5z M111.4,358.5"/>
	<path class="st1" d="M196.7,409.7h34.1c9.4,0,17.1-7.6,17.1-17.1v-34.1c0-9.4-7.6-17.1-17.1-17.1h-34.1c-9.4,0-17.1,7.6-17.1,17.1
		v34.1C179.6,402,187.3,409.7,196.7,409.7L196.7,409.7z M196.7,358.5h34.1v34.1h-34.1V358.5z M196.7,358.5"/>
	<rect x="205.2" y="460.8" class="st1" width="17.1" height="17.1"/>
</g>
</svg>
