<?xml version="1.0" encoding="utf-8"?>
<svg viewBox="2.896 46.333 585.131 130.854" style="enable-background:new 0 0 297 297;" xmlns="http://www.w3.org/2000/svg">
  <g style="" transform="matrix(0.34325, 0, 0, 0.360929, 45.246808, 59.54067)">
    <g>
      <g>
        <path d="M225.426,103.515c-1.396,0-2.798,0.042-4.2,0.125c-9.851-31.388-39.067-53.304-72.726-53.304 S85.624,72.253,75.774,103.64c-1.401-0.083-2.803-0.125-4.2-0.125C32.108,103.515,0,135.623,0,175.089 c0,39.467,32.108,71.575,71.574,71.575h153.852c39.466,0,71.574-32.108,71.574-71.575 C297,135.623,264.892,103.515,225.426,103.515z M225.426,226.596H71.574c-28.4,0-51.506-23.106-51.506-51.507 c0-28.4,23.106-51.506,51.506-51.506c3.279,0,6.6,0.323,9.873,0.959c2.633,0.514,5.362-0.051,7.578-1.565 c2.214-1.514,3.731-3.852,4.21-6.492c4.848-26.701,28.091-46.082,55.264-46.082c27.173,0,50.416,19.381,55.264,46.082 c0.479,2.64,1.996,4.978,4.21,6.492c2.215,1.514,4.946,2.079,7.578,1.565c3.273-0.636,6.594-0.959,9.873-0.959 c28.4,0,51.506,23.106,51.506,51.506C276.932,203.49,253.826,226.596,225.426,226.596z" style="fill: rgb(105, 61, 212);"/>
        <path d="M140.352,127.899c-3.434-4.349-9.743-5.089-14.093-1.655l-41.923,33.111c-2.409,1.903-3.815,4.804-3.815,7.874 s1.405,5.971,3.815,7.874l41.923,33.111c1.842,1.454,4.035,2.161,6.212,2.16c2.965,0,5.901-1.308,7.881-3.815 c3.434-4.349,2.694-10.659-1.655-14.093l-31.954-25.237l31.954-25.237C143.046,138.558,143.787,132.248,140.352,127.899z" style="fill: rgb(105, 61, 212);"/>
        <path d="M212.664,159.355l-41.923-33.111c-4.352-3.434-10.659-2.692-14.093,1.655c-3.434,4.349-2.694,10.659,1.655,14.093 l31.954,25.237l-31.954,25.237c-4.349,3.434-5.089,9.745-1.655,14.093c1.98,2.507,4.916,3.815,7.881,3.815 c2.177,0,4.37-0.705,6.212-2.16l41.923-33.111c2.409-1.903,3.815-4.804,3.815-7.874 C216.479,164.16,215.074,161.258,212.664,159.355z" style="fill: rgb(105, 61, 212);"/>
      </g>
    </g>
  </g>
  <path d="M 242.134 116.556 L 242.134 112.786 Q 242.134 112.087 242.187 111.35 Q 242.24 110.613 242.301 110.111 Q 242.362 109.61 242.377 109.473 L 242.316 109.473 L 240.386 116.556 L 237.756 116.556 L 235.811 109.488 L 235.75 109.488 Q 235.765 109.625 235.834 110.119 Q 235.902 110.613 235.963 111.35 Q 236.024 112.087 236.024 112.786 L 236.024 116.556 L 232.938 116.556 L 232.938 106.098 L 237.68 106.098 L 239.261 112.133 L 239.322 112.133 L 240.888 106.098 L 245.463 106.098 L 245.463 116.556 Z" transform="matrix(4.118596, 0, 0, 5.357051, -787.664978, -484.818604)" style="fill: rgb(148, 145, 145); white-space: pre;"/>
  <path d="M 251.253 108.348 Q 253.093 108.348 254.248 108.964 Q 255.403 109.579 255.403 110.962 L 255.403 114.094 Q 255.403 114.352 255.525 114.519 Q 255.646 114.686 255.889 114.686 L 256.437 114.686 L 256.437 116.434 Q 256.391 116.465 256.201 116.533 Q 256.011 116.602 255.661 116.67 Q 255.312 116.738 254.856 116.738 Q 253.974 116.738 253.404 116.472 Q 252.834 116.206 252.621 115.735 Q 252.044 116.191 251.329 116.465 Q 250.615 116.738 249.657 116.738 Q 246.83 116.738 246.83 114.489 Q 246.83 113.318 247.461 112.703 Q 248.092 112.087 249.277 111.859 Q 250.463 111.631 252.378 111.631 L 252.378 111.236 Q 252.378 110.765 252.051 110.522 Q 251.725 110.278 251.208 110.278 Q 250.737 110.278 250.395 110.446 Q 250.053 110.613 250.053 110.978 L 250.053 111.038 L 247.073 111.038 Q 247.058 110.962 247.058 110.826 Q 247.058 109.686 248.145 109.017 Q 249.232 108.348 251.253 108.348 Z M 252.378 113.06 Q 251.086 113.06 250.471 113.341 Q 249.855 113.622 249.855 114.094 Q 249.855 114.854 250.889 114.854 Q 251.481 114.854 251.93 114.534 Q 252.378 114.215 252.378 113.744 L 252.378 113.06 Z" transform="matrix(4.118596, 0, 0, 5.357051, -787.664978, -484.818604)" style="fill: rgb(148, 145, 145); white-space: pre;"/>
  <path d="M 262.957 108.348 Q 264.356 108.348 265.055 109.123 Q 265.754 109.898 265.754 111.358 L 265.754 116.556 L 262.729 116.556 L 262.729 111.722 Q 262.729 111.206 262.463 110.894 Q 262.197 110.582 261.711 110.582 Q 261.148 110.582 260.799 110.947 Q 260.449 111.312 260.449 111.844 L 260.449 116.556 L 257.424 116.556 L 257.424 108.53 L 259.902 108.53 L 260.1 109.746 Q 260.571 109.108 261.338 108.728 Q 262.106 108.348 262.957 108.348 Z" transform="matrix(4.118596, 0, 0, 5.357051, -787.664978, -484.818604)" style="fill: rgb(148, 145, 145); white-space: pre;"/>
  <path d="M 276.591 107.026 Q 276.591 107.953 276.128 108.454 Q 275.664 108.956 274.737 109.199 Q 275.178 109.534 275.429 109.982 Q 275.679 110.43 275.679 110.932 Q 275.679 112.209 274.714 112.862 Q 273.749 113.516 272.305 113.516 L 271.15 113.516 Q 270.192 113.516 270.192 113.957 Q 270.192 114.17 270.405 114.299 Q 270.618 114.428 271.15 114.428 L 273.886 114.428 Q 275.223 114.428 275.907 115.127 Q 276.591 115.826 276.591 116.997 Q 276.591 117.863 276.135 118.486 Q 275.679 119.11 274.904 119.429 Q 274.129 119.748 273.217 119.748 L 268.748 119.748 Q 268.201 119.748 267.737 119.49 Q 267.274 119.231 267 118.783 Q 266.727 118.334 266.727 117.787 Q 266.727 117.194 267.091 116.716 Q 267.456 116.237 268.003 115.994 Q 267.639 115.735 267.426 115.37 Q 267.213 115.006 267.213 114.58 Q 267.213 113.987 267.654 113.508 Q 268.095 113.03 268.748 112.862 Q 268.155 112.482 267.806 111.988 Q 267.456 111.494 267.456 110.947 Q 267.456 109.549 268.589 108.948 Q 269.721 108.348 271.591 108.348 Q 272.411 108.348 272.913 108.439 Q 273.658 107.968 273.878 107.58 Q 274.099 107.193 274.099 107.026 L 276.591 107.026 Z M 271.56 109.929 Q 271.059 109.929 270.739 110.187 Q 270.42 110.446 270.42 110.932 Q 270.42 111.434 270.717 111.684 Q 271.013 111.935 271.56 111.935 Q 272.107 111.935 272.419 111.684 Q 272.731 111.434 272.731 110.932 Q 272.731 110.43 272.419 110.18 Q 272.107 109.929 271.56 109.929 Z M 270.39 116.556 Q 270.04 116.556 269.82 116.746 Q 269.599 116.936 269.599 117.286 Q 269.599 117.635 269.827 117.848 Q 270.055 118.061 270.39 118.061 L 272.761 118.061 Q 273.095 118.061 273.331 117.856 Q 273.567 117.65 273.567 117.301 Q 273.567 116.951 273.339 116.754 Q 273.111 116.556 272.761 116.556 L 270.39 116.556 Z" transform="matrix(4.118596, 0, 0, 5.357051, -787.664978, -484.818604)" style="fill: rgb(148, 145, 145); white-space: pre;"/>
  <path d="M 281.85 108.348 Q 283.963 108.348 285.171 109.42 Q 286.38 110.491 286.38 112.543 Q 286.38 114.595 285.171 115.667 Q 283.963 116.738 281.85 116.738 Q 279.737 116.738 278.537 115.674 Q 277.336 114.61 277.336 112.543 Q 277.336 110.476 278.537 109.412 Q 279.737 108.348 281.85 108.348 Z M 281.85 110.4 Q 280.361 110.4 280.361 112.118 L 280.361 112.984 Q 280.361 114.686 281.85 114.686 Q 283.355 114.686 283.355 112.984 L 283.355 112.118 Q 283.355 110.4 281.85 110.4 Z" transform="matrix(4.118596, 0, 0, 5.357051, -787.664978, -484.818604)" style="fill: rgb(148, 145, 145); white-space: pre;"/>
  <path d="M 293.128 108.348 Q 294.755 108.348 295.636 109.412 Q 296.518 110.476 296.518 112.558 Q 296.518 114.626 295.636 115.682 Q 294.755 116.738 293.128 116.738 Q 291.73 116.738 290.879 115.826 L 290.879 119.55 L 287.854 119.55 L 287.854 108.53 L 290.316 108.53 L 290.575 109.67 Q 291.456 108.348 293.128 108.348 Z M 292.186 110.582 Q 291.517 110.582 291.183 111.054 Q 290.848 111.525 290.848 112.285 L 290.848 112.786 Q 290.848 113.546 291.183 114.025 Q 291.517 114.504 292.186 114.504 Q 293.493 114.504 293.493 112.938 L 293.493 112.133 Q 293.493 110.582 292.186 110.582 Z" transform="matrix(4.118596, 0, 0, 5.357051, -787.664978, -484.818604)" style="fill: rgb(148, 145, 145); white-space: pre;"/>
  <path d="M 303.799 116.556 L 303.601 115.34 Q 303.13 115.994 302.362 116.366 Q 301.595 116.738 300.743 116.738 Q 299.345 116.738 298.646 115.963 Q 297.947 115.188 297.947 113.729 L 297.947 108.53 L 300.971 108.53 L 300.971 113.364 Q 300.971 113.881 301.237 114.192 Q 301.503 114.504 301.99 114.504 Q 302.552 114.504 302.902 114.139 Q 303.251 113.774 303.251 113.242 L 303.251 108.53 L 306.276 108.53 L 306.276 116.556 Z" transform="matrix(4.118596, 0, 0, 5.357051, -787.664978, -484.818604)" style="fill: rgb(148, 145, 145); white-space: pre;"/>
  <path d="M 308.222 116.556 L 308.222 105.536 L 311.246 105.536 L 311.246 116.556 Z" transform="matrix(4.118596, 0, 0, 5.357051, -787.664978, -484.818604)" style="fill: rgb(148, 145, 145); white-space: pre;"/>
  <path d="M 316.991 108.348 Q 318.602 108.348 319.719 108.979 Q 320.836 109.61 320.836 110.932 L 318.024 110.932 Q 318.024 110.491 317.629 110.309 Q 317.355 110.157 316.945 110.157 Q 315.851 110.157 315.851 110.674 Q 315.851 110.962 316.231 111.084 Q 316.611 111.206 317.477 111.342 Q 318.541 111.494 319.255 111.7 Q 319.97 111.905 320.502 112.429 Q 321.034 112.954 321.034 113.896 Q 321.034 115.431 319.886 116.085 Q 318.739 116.738 316.884 116.738 Q 315.82 116.738 314.878 116.442 Q 313.935 116.146 313.343 115.522 Q 312.75 114.899 312.75 113.942 L 315.562 113.942 L 315.562 114.002 Q 315.577 114.519 315.995 114.724 Q 316.413 114.93 316.884 114.93 Q 318.146 114.93 318.146 114.337 Q 318.146 114.033 317.751 113.896 Q 317.355 113.759 316.459 113.607 Q 315.379 113.425 314.688 113.212 Q 313.996 112.999 313.479 112.49 Q 312.963 111.981 312.963 111.069 Q 312.963 109.594 314.08 108.971 Q 315.197 108.348 316.991 108.348 Z" transform="matrix(4.118596, 0, 0, 5.357051, -787.664978, -484.818604)" style="fill: rgb(148, 145, 145); white-space: pre;"/>
  <path d="M 326.613 108.348 Q 328.817 108.348 329.98 109.382 Q 331.143 110.415 331.143 112.543 L 331.143 113.06 L 325.123 113.06 Q 325.123 113.926 325.511 114.367 Q 325.899 114.808 326.735 114.808 Q 327.495 114.808 327.852 114.489 Q 328.209 114.17 328.209 113.638 L 331.143 113.638 Q 331.143 115.097 330.033 115.918 Q 328.923 116.738 326.795 116.738 Q 324.561 116.738 323.33 115.697 Q 322.099 114.656 322.099 112.543 Q 322.099 110.476 323.299 109.412 Q 324.5 108.348 326.613 108.348 Z M 326.735 110.278 Q 325.306 110.278 325.139 111.631 L 328.087 111.631 Q 328.087 111.008 327.73 110.643 Q 327.373 110.278 326.735 110.278 Z" transform="matrix(4.118596, 0, 0, 5.357051, -787.664978, -484.818604)" style="fill: rgb(148, 145, 145); white-space: pre;"/>
</svg>